# xmcd CD database file
#
# Track frame offsets:
#	150
#	27115
#	66603
#	90459
#	112144
#	131423
#	150739
#	185419
#	200027
#	219782
#	235583
#	253432
#	270503
#	288736
#	308426
#	340896
#
# Disc length: 4778 seconds
#
# Revision: 0
# Processed by: cddbd v1.5.1PL2 Copyright (c) Steve Scherf et al.
# Submitted via: CDex 1.51
#
DISCID=ec12a810
DTITLE=Ella Fitzgerald and Louis Armstrong - The complete on Verve
DYEAR=1900
DGENRE=Jazz
TTITLE0=ELLA AND LOUIS - AUTUMN IN NEW YORK
TTITLE1=ELLA AND LOUIS - LET'S DO IT
TTITLE2=ELLA AND LOUIS - STOMPIN' AT THE SAVOY
TTITLE3=ELLA AND LOUIS - I WON'T DANCE
TTITLE4=ELLA AND LOUIS - GEE, BABY, AIN'T GOOD TO YOU
TTITLE5=ELLA AND LOUIS - LET'S CALL THE WHOLE THING OFF
TTITLE6=ELLA AND LOUIS - THESE FOOLISH THINGS
TTITLE7=ELLA AND LOUIS - I'VE GOT MY LOVE TOO KEEP ME W
TTITLE8=ELLA AND LOUIS - WILLOW WEEP FOR ME
TTITLE9=ELLA AND LOUIS - I'M PUTTIN' ALL MY EGGS IN ONE
TTITLE10=ELLA AND LOUIS - A FINE ROMANCE
TTITLE11=ELLA AND LOUIS - ILL WIND
TTITLE12=ELLA AND LOUIS - LOVE IS HERE TO STAY
TTITLE13=ELLA AND LOUIS - I GET A KICK OUT OF YOU
TTITLE14=ELLA AND LOUIS - LEARNIN' THE BLUES
TTITLE15=ELLA AND LOUIS - YOU WONT' BE SATISFIED
EXTD=
EXTT0=
EXTT1=
EXTT2=
EXTT3=
EXTT4=
EXTT5=
EXTT6=
EXTT7=
EXTT8=
EXTT9=
EXTT10=
EXTT11=
EXTT12=
EXTT13=
EXTT14=
EXTT15=
PLAYORDER=
